<mxfile host="app.diagrams.net" agent="Mozilla/5.0 (Macintosh; Intel Mac OS X 10_15_7) AppleWebKit/537.36 (KHTML, like Gecko) Chrome/131.0.0.0 Safari/537.36" version="25.0.1" pages="3">
  <diagram name="Trang-1" id="CyYT3Xi5BBwkITxkcFKD">
    <mxGraphModel dx="954" dy="639" grid="1" gridSize="10" guides="1" tooltips="1" connect="1" arrows="1" fold="1" page="1" pageScale="1" pageWidth="827" pageHeight="1169" math="0" shadow="0">
      <root>
        <mxCell id="0" />
        <mxCell id="1" parent="0" />
        <mxCell id="jRs4Uepz6Sg_a2M4gcok-3" value="" style="edgeStyle=orthogonalEdgeStyle;rounded=0;orthogonalLoop=1;jettySize=auto;html=1;" edge="1" parent="1" source="jRs4Uepz6Sg_a2M4gcok-1" target="jRs4Uepz6Sg_a2M4gcok-2">
          <mxGeometry relative="1" as="geometry" />
        </mxCell>
        <mxCell id="jRs4Uepz6Sg_a2M4gcok-1" value="Start" style="ellipse;whiteSpace=wrap;html=1;" vertex="1" parent="1">
          <mxGeometry x="150" y="30" width="120" height="80" as="geometry" />
        </mxCell>
        <mxCell id="jRs4Uepz6Sg_a2M4gcok-5" value="" style="edgeStyle=orthogonalEdgeStyle;rounded=0;orthogonalLoop=1;jettySize=auto;html=1;" edge="1" parent="1" source="jRs4Uepz6Sg_a2M4gcok-2" target="jRs4Uepz6Sg_a2M4gcok-4">
          <mxGeometry relative="1" as="geometry" />
        </mxCell>
        <mxCell id="jRs4Uepz6Sg_a2M4gcok-2" value="Nhập n" style="shape=parallelogram;perimeter=parallelogramPerimeter;whiteSpace=wrap;html=1;fixedSize=1;" vertex="1" parent="1">
          <mxGeometry x="150" y="160" width="120" height="60" as="geometry" />
        </mxCell>
        <mxCell id="jRs4Uepz6Sg_a2M4gcok-10" value="" style="edgeStyle=orthogonalEdgeStyle;rounded=0;orthogonalLoop=1;jettySize=auto;html=1;" edge="1" parent="1" source="jRs4Uepz6Sg_a2M4gcok-4" target="jRs4Uepz6Sg_a2M4gcok-9">
          <mxGeometry relative="1" as="geometry" />
        </mxCell>
        <mxCell id="jRs4Uepz6Sg_a2M4gcok-16" value="" style="edgeStyle=orthogonalEdgeStyle;rounded=0;orthogonalLoop=1;jettySize=auto;html=1;" edge="1" parent="1" source="jRs4Uepz6Sg_a2M4gcok-4" target="jRs4Uepz6Sg_a2M4gcok-6">
          <mxGeometry relative="1" as="geometry" />
        </mxCell>
        <mxCell id="jRs4Uepz6Sg_a2M4gcok-4" value="n chia hết cho 2 dư 0" style="rhombus;whiteSpace=wrap;html=1;" vertex="1" parent="1">
          <mxGeometry x="130" y="300" width="160" height="100" as="geometry" />
        </mxCell>
        <mxCell id="jRs4Uepz6Sg_a2M4gcok-15" value="" style="edgeStyle=orthogonalEdgeStyle;rounded=0;orthogonalLoop=1;jettySize=auto;html=1;" edge="1" parent="1" source="jRs4Uepz6Sg_a2M4gcok-6" target="jRs4Uepz6Sg_a2M4gcok-14">
          <mxGeometry relative="1" as="geometry" />
        </mxCell>
        <mxCell id="jRs4Uepz6Sg_a2M4gcok-6" value="n là số chẵn" style="shape=parallelogram;perimeter=parallelogramPerimeter;whiteSpace=wrap;html=1;fixedSize=1;" vertex="1" parent="1">
          <mxGeometry x="150" y="458" width="120" height="60" as="geometry" />
        </mxCell>
        <mxCell id="jRs4Uepz6Sg_a2M4gcok-19" value="" style="edgeStyle=orthogonalEdgeStyle;rounded=0;orthogonalLoop=1;jettySize=auto;html=1;" edge="1" parent="1" source="jRs4Uepz6Sg_a2M4gcok-9" target="jRs4Uepz6Sg_a2M4gcok-14">
          <mxGeometry relative="1" as="geometry" />
        </mxCell>
        <mxCell id="jRs4Uepz6Sg_a2M4gcok-9" value="n là số lẻ" style="shape=parallelogram;perimeter=parallelogramPerimeter;whiteSpace=wrap;html=1;fixedSize=1;" vertex="1" parent="1">
          <mxGeometry x="390" y="320" width="120" height="60" as="geometry" />
        </mxCell>
        <mxCell id="jRs4Uepz6Sg_a2M4gcok-11" value="False" style="text;html=1;align=center;verticalAlign=middle;resizable=0;points=[];autosize=1;strokeColor=none;fillColor=none;" vertex="1" parent="1">
          <mxGeometry x="315" y="318" width="50" height="30" as="geometry" />
        </mxCell>
        <mxCell id="jRs4Uepz6Sg_a2M4gcok-14" value="End" style="ellipse;whiteSpace=wrap;html=1;" vertex="1" parent="1">
          <mxGeometry x="390" y="448" width="120" height="80" as="geometry" />
        </mxCell>
        <mxCell id="jRs4Uepz6Sg_a2M4gcok-17" value="true" style="text;html=1;align=center;verticalAlign=middle;resizable=0;points=[];autosize=1;strokeColor=none;fillColor=none;" vertex="1" parent="1">
          <mxGeometry x="210" y="418" width="40" height="30" as="geometry" />
        </mxCell>
      </root>
    </mxGraphModel>
  </diagram>
  <diagram id="DVEoc5Ti0lQazJap-90g" name="Trang-2">
    <mxGraphModel dx="954" dy="639" grid="1" gridSize="10" guides="1" tooltips="1" connect="1" arrows="1" fold="1" page="1" pageScale="1" pageWidth="827" pageHeight="1169" math="0" shadow="0">
      <root>
        <mxCell id="0" />
        <mxCell id="1" parent="0" />
        <mxCell id="WQ0FA9eXUiF02e8jajia-3" value="" style="edgeStyle=orthogonalEdgeStyle;rounded=0;orthogonalLoop=1;jettySize=auto;html=1;" edge="1" parent="1" source="WQ0FA9eXUiF02e8jajia-1" target="WQ0FA9eXUiF02e8jajia-2">
          <mxGeometry relative="1" as="geometry" />
        </mxCell>
        <mxCell id="WQ0FA9eXUiF02e8jajia-1" value="start" style="ellipse;whiteSpace=wrap;html=1;" vertex="1" parent="1">
          <mxGeometry x="160" y="110" width="120" height="80" as="geometry" />
        </mxCell>
        <mxCell id="WQ0FA9eXUiF02e8jajia-5" value="" style="edgeStyle=orthogonalEdgeStyle;rounded=0;orthogonalLoop=1;jettySize=auto;html=1;" edge="1" parent="1" source="WQ0FA9eXUiF02e8jajia-2" target="WQ0FA9eXUiF02e8jajia-4">
          <mxGeometry relative="1" as="geometry" />
        </mxCell>
        <mxCell id="WQ0FA9eXUiF02e8jajia-2" value="Nhập a,b,c" style="shape=parallelogram;perimeter=parallelogramPerimeter;whiteSpace=wrap;html=1;fixedSize=1;" vertex="1" parent="1">
          <mxGeometry x="160" y="240" width="120" height="60" as="geometry" />
        </mxCell>
        <mxCell id="WQ0FA9eXUiF02e8jajia-7" value="" style="edgeStyle=orthogonalEdgeStyle;rounded=0;orthogonalLoop=1;jettySize=auto;html=1;" edge="1" parent="1" source="WQ0FA9eXUiF02e8jajia-4" target="WQ0FA9eXUiF02e8jajia-6">
          <mxGeometry relative="1" as="geometry" />
        </mxCell>
        <mxCell id="WQ0FA9eXUiF02e8jajia-10" value="" style="edgeStyle=orthogonalEdgeStyle;rounded=0;orthogonalLoop=1;jettySize=auto;html=1;" edge="1" parent="1" source="WQ0FA9eXUiF02e8jajia-4" target="WQ0FA9eXUiF02e8jajia-9">
          <mxGeometry relative="1" as="geometry" />
        </mxCell>
        <mxCell id="WQ0FA9eXUiF02e8jajia-4" value="a&amp;gt;b và a&amp;gt;c" style="rhombus;whiteSpace=wrap;html=1;" vertex="1" parent="1">
          <mxGeometry x="180" y="370" width="80" height="80" as="geometry" />
        </mxCell>
        <mxCell id="WQ0FA9eXUiF02e8jajia-21" style="edgeStyle=orthogonalEdgeStyle;rounded=0;orthogonalLoop=1;jettySize=auto;html=1;exitX=0.5;exitY=1;exitDx=0;exitDy=0;entryX=0.5;entryY=0;entryDx=0;entryDy=0;" edge="1" parent="1" source="WQ0FA9eXUiF02e8jajia-6" target="WQ0FA9eXUiF02e8jajia-18">
          <mxGeometry relative="1" as="geometry" />
        </mxCell>
        <mxCell id="WQ0FA9eXUiF02e8jajia-6" value="a là số lớn nhất" style="shape=parallelogram;perimeter=parallelogramPerimeter;whiteSpace=wrap;html=1;fixedSize=1;" vertex="1" parent="1">
          <mxGeometry x="160" y="500" width="120" height="60" as="geometry" />
        </mxCell>
        <mxCell id="WQ0FA9eXUiF02e8jajia-8" value="true" style="text;html=1;align=center;verticalAlign=middle;resizable=0;points=[];autosize=1;strokeColor=none;fillColor=none;" vertex="1" parent="1">
          <mxGeometry x="230" y="448" width="40" height="30" as="geometry" />
        </mxCell>
        <mxCell id="WQ0FA9eXUiF02e8jajia-13" value="" style="edgeStyle=orthogonalEdgeStyle;rounded=0;orthogonalLoop=1;jettySize=auto;html=1;" edge="1" parent="1" source="WQ0FA9eXUiF02e8jajia-9">
          <mxGeometry relative="1" as="geometry">
            <mxPoint x="500" y="410" as="targetPoint" />
          </mxGeometry>
        </mxCell>
        <mxCell id="WQ0FA9eXUiF02e8jajia-17" value="" style="edgeStyle=orthogonalEdgeStyle;rounded=0;orthogonalLoop=1;jettySize=auto;html=1;" edge="1" parent="1" source="WQ0FA9eXUiF02e8jajia-9" target="WQ0FA9eXUiF02e8jajia-16">
          <mxGeometry relative="1" as="geometry" />
        </mxCell>
        <mxCell id="WQ0FA9eXUiF02e8jajia-9" value="b&amp;gt;a và b&amp;gt;c" style="rhombus;whiteSpace=wrap;html=1;" vertex="1" parent="1">
          <mxGeometry x="340" y="370" width="80" height="80" as="geometry" />
        </mxCell>
        <mxCell id="WQ0FA9eXUiF02e8jajia-11" value="false" style="text;html=1;align=center;verticalAlign=middle;resizable=0;points=[];autosize=1;strokeColor=none;fillColor=none;" vertex="1" parent="1">
          <mxGeometry x="265" y="388" width="50" height="30" as="geometry" />
        </mxCell>
        <mxCell id="WQ0FA9eXUiF02e8jajia-24" style="edgeStyle=orthogonalEdgeStyle;rounded=0;orthogonalLoop=1;jettySize=auto;html=1;exitX=0.5;exitY=1;exitDx=0;exitDy=0;entryX=1;entryY=0.5;entryDx=0;entryDy=0;" edge="1" parent="1" source="WQ0FA9eXUiF02e8jajia-14" target="WQ0FA9eXUiF02e8jajia-18">
          <mxGeometry relative="1" as="geometry" />
        </mxCell>
        <mxCell id="WQ0FA9eXUiF02e8jajia-14" value="c là số lớn nhất" style="shape=parallelogram;perimeter=parallelogramPerimeter;whiteSpace=wrap;html=1;fixedSize=1;" vertex="1" parent="1">
          <mxGeometry x="490" y="373" width="120" height="60" as="geometry" />
        </mxCell>
        <mxCell id="WQ0FA9eXUiF02e8jajia-15" value="false" style="text;html=1;align=center;verticalAlign=middle;resizable=0;points=[];autosize=1;strokeColor=none;fillColor=none;" vertex="1" parent="1">
          <mxGeometry x="425" y="388" width="50" height="30" as="geometry" />
        </mxCell>
        <mxCell id="WQ0FA9eXUiF02e8jajia-22" style="edgeStyle=orthogonalEdgeStyle;rounded=0;orthogonalLoop=1;jettySize=auto;html=1;exitX=0.5;exitY=1;exitDx=0;exitDy=0;entryX=1;entryY=0.5;entryDx=0;entryDy=0;" edge="1" parent="1" source="WQ0FA9eXUiF02e8jajia-16" target="WQ0FA9eXUiF02e8jajia-18">
          <mxGeometry relative="1" as="geometry" />
        </mxCell>
        <mxCell id="WQ0FA9eXUiF02e8jajia-16" value="b là số lớn nhất" style="shape=parallelogram;perimeter=parallelogramPerimeter;whiteSpace=wrap;html=1;fixedSize=1;" vertex="1" parent="1">
          <mxGeometry x="320" y="500" width="120" height="60" as="geometry" />
        </mxCell>
        <mxCell id="WQ0FA9eXUiF02e8jajia-18" value="end" style="ellipse;whiteSpace=wrap;html=1;" vertex="1" parent="1">
          <mxGeometry x="160" y="630" width="120" height="80" as="geometry" />
        </mxCell>
        <mxCell id="WQ0FA9eXUiF02e8jajia-25" value="true" style="text;html=1;align=center;verticalAlign=middle;resizable=0;points=[];autosize=1;strokeColor=none;fillColor=none;" vertex="1" parent="1">
          <mxGeometry x="380" y="458" width="40" height="30" as="geometry" />
        </mxCell>
      </root>
    </mxGraphModel>
  </diagram>
  <diagram id="NsZ2T69oxcHCl9akkS3h" name="Trang-3">
    <mxGraphModel dx="1468" dy="983" grid="1" gridSize="10" guides="1" tooltips="1" connect="1" arrows="1" fold="1" page="1" pageScale="1" pageWidth="827" pageHeight="1169" math="0" shadow="0">
      <root>
        <mxCell id="0" />
        <mxCell id="1" parent="0" />
        <mxCell id="gtUAXwsa0GIRVXhnnC6l-3" value="" style="edgeStyle=orthogonalEdgeStyle;rounded=0;orthogonalLoop=1;jettySize=auto;html=1;" edge="1" parent="1" source="gtUAXwsa0GIRVXhnnC6l-1" target="gtUAXwsa0GIRVXhnnC6l-2">
          <mxGeometry relative="1" as="geometry" />
        </mxCell>
        <mxCell id="gtUAXwsa0GIRVXhnnC6l-1" value="start&lt;div&gt;&lt;br&gt;&lt;/div&gt;" style="ellipse;whiteSpace=wrap;html=1;" vertex="1" parent="1">
          <mxGeometry x="140" y="70" width="120" height="80" as="geometry" />
        </mxCell>
        <mxCell id="gtUAXwsa0GIRVXhnnC6l-5" value="" style="edgeStyle=orthogonalEdgeStyle;rounded=0;orthogonalLoop=1;jettySize=auto;html=1;" edge="1" parent="1" source="gtUAXwsa0GIRVXhnnC6l-2" target="gtUAXwsa0GIRVXhnnC6l-4">
          <mxGeometry relative="1" as="geometry" />
        </mxCell>
        <mxCell id="gtUAXwsa0GIRVXhnnC6l-2" value="Nhập n" style="shape=parallelogram;perimeter=parallelogramPerimeter;whiteSpace=wrap;html=1;fixedSize=1;" vertex="1" parent="1">
          <mxGeometry x="140" y="190" width="120" height="60" as="geometry" />
        </mxCell>
        <mxCell id="gtUAXwsa0GIRVXhnnC6l-7" value="" style="edgeStyle=orthogonalEdgeStyle;rounded=0;orthogonalLoop=1;jettySize=auto;html=1;" edge="1" parent="1" source="gtUAXwsa0GIRVXhnnC6l-4" target="gtUAXwsa0GIRVXhnnC6l-6">
          <mxGeometry relative="1" as="geometry" />
        </mxCell>
        <mxCell id="gtUAXwsa0GIRVXhnnC6l-4" value="int factorial = 1" style="rounded=0;whiteSpace=wrap;html=1;" vertex="1" parent="1">
          <mxGeometry x="141" y="300" width="120" height="60" as="geometry" />
        </mxCell>
        <mxCell id="gtUAXwsa0GIRVXhnnC6l-9" value="" style="edgeStyle=orthogonalEdgeStyle;rounded=0;orthogonalLoop=1;jettySize=auto;html=1;" edge="1" parent="1" source="gtUAXwsa0GIRVXhnnC6l-6" target="gtUAXwsa0GIRVXhnnC6l-8">
          <mxGeometry relative="1" as="geometry" />
        </mxCell>
        <mxCell id="gtUAXwsa0GIRVXhnnC6l-12" value="" style="edgeStyle=orthogonalEdgeStyle;rounded=0;orthogonalLoop=1;jettySize=auto;html=1;" edge="1" parent="1" source="gtUAXwsa0GIRVXhnnC6l-6" target="gtUAXwsa0GIRVXhnnC6l-11">
          <mxGeometry relative="1" as="geometry" />
        </mxCell>
        <mxCell id="gtUAXwsa0GIRVXhnnC6l-6" value="&lt;font style=&quot;font-size: 18px;&quot;&gt;for (int i=n ; i &amp;gt;= 1; i--&lt;/font&gt;" style="rhombus;whiteSpace=wrap;html=1;rounded=0;" vertex="1" parent="1">
          <mxGeometry x="75" y="450" width="250" height="130" as="geometry" />
        </mxCell>
        <mxCell id="gtUAXwsa0GIRVXhnnC6l-8" value="END" style="ellipse;whiteSpace=wrap;html=1;" vertex="1" parent="1">
          <mxGeometry x="414" y="475" width="120" height="80" as="geometry" />
        </mxCell>
        <mxCell id="gtUAXwsa0GIRVXhnnC6l-10" value="false" style="text;html=1;align=center;verticalAlign=middle;resizable=0;points=[];autosize=1;strokeColor=none;fillColor=none;" vertex="1" parent="1">
          <mxGeometry x="335" y="488" width="50" height="30" as="geometry" />
        </mxCell>
        <mxCell id="gtUAXwsa0GIRVXhnnC6l-15" value="" style="edgeStyle=orthogonalEdgeStyle;rounded=0;orthogonalLoop=1;jettySize=auto;html=1;" edge="1" parent="1" source="gtUAXwsa0GIRVXhnnC6l-11">
          <mxGeometry relative="1" as="geometry">
            <mxPoint x="200" y="800" as="targetPoint" />
          </mxGeometry>
        </mxCell>
        <mxCell id="gtUAXwsa0GIRVXhnnC6l-11" value="&lt;font style=&quot;font-size: 18px;&quot;&gt;factorial * n&lt;/font&gt;" style="whiteSpace=wrap;html=1;rounded=0;" vertex="1" parent="1">
          <mxGeometry x="140" y="670" width="120" height="60" as="geometry" />
        </mxCell>
        <mxCell id="gtUAXwsa0GIRVXhnnC6l-13" value="true" style="text;html=1;align=center;verticalAlign=middle;resizable=0;points=[];autosize=1;strokeColor=none;fillColor=none;" vertex="1" parent="1">
          <mxGeometry x="200" y="598" width="40" height="30" as="geometry" />
        </mxCell>
        <mxCell id="gtUAXwsa0GIRVXhnnC6l-23" style="edgeStyle=orthogonalEdgeStyle;rounded=0;orthogonalLoop=1;jettySize=auto;html=1;exitX=0;exitY=0.5;exitDx=0;exitDy=0;entryX=0;entryY=0.5;entryDx=0;entryDy=0;" edge="1" parent="1" source="gtUAXwsa0GIRVXhnnC6l-16" target="gtUAXwsa0GIRVXhnnC6l-6">
          <mxGeometry relative="1" as="geometry" />
        </mxCell>
        <mxCell id="gtUAXwsa0GIRVXhnnC6l-28" style="edgeStyle=orthogonalEdgeStyle;rounded=0;orthogonalLoop=1;jettySize=auto;html=1;entryX=0.5;entryY=0;entryDx=0;entryDy=0;" edge="1" parent="1" source="gtUAXwsa0GIRVXhnnC6l-16" target="gtUAXwsa0GIRVXhnnC6l-26">
          <mxGeometry relative="1" as="geometry" />
        </mxCell>
        <mxCell id="gtUAXwsa0GIRVXhnnC6l-16" value="&lt;font style=&quot;font-size: 24px;&quot;&gt;i --&lt;/font&gt;" style="rounded=0;whiteSpace=wrap;html=1;" vertex="1" parent="1">
          <mxGeometry x="140" y="800" width="130" height="60" as="geometry" />
        </mxCell>
        <mxCell id="gtUAXwsa0GIRVXhnnC6l-26" value="&lt;span style=&quot;font-size: 18px;&quot;&gt;in kết quả của factorial&lt;/span&gt;&amp;nbsp;" style="shape=parallelogram;perimeter=parallelogramPerimeter;whiteSpace=wrap;html=1;fixedSize=1;" vertex="1" parent="1">
          <mxGeometry x="90" y="960" width="230" height="60" as="geometry" />
        </mxCell>
        <mxCell id="gtUAXwsa0GIRVXhnnC6l-29" style="edgeStyle=orthogonalEdgeStyle;rounded=0;orthogonalLoop=1;jettySize=auto;html=1;exitX=1;exitY=0.75;exitDx=0;exitDy=0;entryX=0.442;entryY=0.966;entryDx=0;entryDy=0;entryPerimeter=0;" edge="1" parent="1" source="gtUAXwsa0GIRVXhnnC6l-26" target="gtUAXwsa0GIRVXhnnC6l-8">
          <mxGeometry relative="1" as="geometry" />
        </mxCell>
      </root>
    </mxGraphModel>
  </diagram>
</mxfile>
